<?xml version="1.0" encoding="UTF-8"?>
<svg version="1.1" xmlns="http://www.w3.org/2000/svg" width="191" height="55">
<path d="M0 0 C5.57273404 5.15397368 8.12854236 9.27618623 8.5 16.9375 C8.39592065 24.79549121 5.51995016 29.78528829 1 36 C0.50193848 36.68690918 0.00387695 37.37381836 -0.50927734 38.08154297 C-3.93849122 42.77420558 -7.44595631 47.40133592 -11 52 C-15.36576179 47.93226992 -18.71983739 43.4494603 -22.125 38.5625 C-22.64964844 37.82451172 -23.17429687 37.08652344 -23.71484375 36.32617188 C-29.77091 27.70202689 -31.96770429 21.67200649 -31 11 C-29.30019517 5.50063143 -25.64790773 2.20476721 -21 -1 C-14.02795501 -4.19552062 -6.59528765 -3.92361535 0 0 Z " fill="#85CCC6" transform="translate(32,3)"/>
<path d="M0 0 C5.57273404 5.15397368 8.12854236 9.27618623 8.5 16.9375 C8.39592065 24.79549121 5.51995016 29.78528829 1 36 C0.50193848 36.68690918 0.00387695 37.37381836 -0.50927734 38.08154297 C-3.93849122 42.77420558 -7.44595631 47.40133592 -11 52 C-15.36576179 47.93226992 -18.71983739 43.4494603 -22.125 38.5625 C-22.64964844 37.82451172 -23.17429687 37.08652344 -23.71484375 36.32617188 C-29.77091 27.70202689 -31.96770429 21.67200649 -31 11 C-29.30019517 5.50063143 -25.64790773 2.20476721 -21 -1 C-14.02795501 -4.19552062 -6.59528765 -3.92361535 0 0 Z M-12 0 C-12.33 0.99 -12.66 1.98 -13 3 C-13.33 2.34 -13.66 1.68 -14 1 C-19.98188944 1.55645483 -22.90511937 3.61617032 -26.8125 8.0625 C-28.88641449 13.19270953 -28.95612228 18.77684564 -27.37890625 24.09375 C-24.96690566 28.9820712 -20.98083874 31.94585848 -16 34 C-10.6959717 35.17182021 -6.43007243 33.79206847 -1.76171875 31.21484375 C1.37386861 29.05260945 3.31633167 26.36733665 5 23 C5.50502343 17.46957948 5.73807257 12.58969476 3.375 7.5 C-1.33515997 2.54193687 -5.15308077 0.54775354 -12 0 Z " fill="#D0D3D5" transform="translate(32,3)"/>
<path d="M0 0 C0 8.91 0 17.82 0 27 C-1.65 27.33 -3.3 27.66 -5 28 C-5.66 26.68 -6.32 25.36 -7 24 C-8.32 24 -9.64 24 -11 24 C-13.25684543 18.63999211 -14.36263859 14.8022175 -14 9 C-13.01 8.67 -12.02 8.34 -11 8 C-10.690625 7.030625 -10.38125 6.06125 -10.0625 5.0625 C-9 2 -9 2 -7.1875 0.625 C-5 0 -5 0 0 0 Z " fill="#F2F9F9" transform="translate(20,6)"/>
<path d="M0 0 C1.98 0 3.96 0 6 0 C6.33 0.99 6.66 1.98 7 3 C9.01508358 3.73323796 9.01508358 3.73323796 11 4 C11 5.32 11 6.64 11 8 C11.99 8.33 12.98 8.66 14 9 C14 11.64 14 14.28 14 17 C13.34 17.33 12.68 17.66 12 18 C12 19.65 12 21.3 12 23 C10.68 23.33 9.36 23.66 8 24 C8 23.01 8 22.02 8 21 C6.70366379 22.06645115 6.70366379 22.06645115 6.9375 24.5625 C6.958125 25.366875 6.97875 26.17125 7 27 C4.625 27.625 4.625 27.625 2 28 C0 26 0 26 -0.22705078 23.38623047 C-0.21657715 22.30744629 -0.20610352 21.22866211 -0.1953125 20.1171875 C-0.18886719 18.95058594 -0.18242187 17.78398437 -0.17578125 16.58203125 C-0.15902344 15.35871094 -0.14226563 14.13539062 -0.125 12.875 C-0.11597656 11.64394531 -0.10695313 10.41289062 -0.09765625 9.14453125 C-0.07402548 6.09616185 -0.04108054 3.04817618 0 0 Z " fill="#F7FBFB" transform="translate(21,6)"/>
<path d="M0 0 C0.99 0 1.98 0 3 0 C3.33 0.66 3.66 1.32 4 2 C4.33 1.34 4.66 0.68 5 0 C5.99 0 6.98 0 8 0 C8 4.62 8 9.24 8 14 C7.01 14 6.02 14 5 14 C4.67 13.34 4.34 12.68 4 12 C3.67 12.66 3.34 13.32 3 14 C2.01 14 1.02 14 0 14 C0 9.38 0 4.76 0 0 Z " fill="#FFFFFF" transform="translate(81,13)"/>
<path d="M0 0 C0.66 0 1.32 0 2 0 C2.66 1.32 3.32 2.64 4 4 C4.66 2.68 5.32 1.36 6 0 C6.99 0 7.98 0 9 0 C9 4.62 9 9.24 9 14 C8.34 14 7.68 14 7 14 C6.67 12.68 6.34 11.36 6 10 C5.01 10.33 4.02 10.66 3 11 C2.67 11.99 2.34 12.98 2 14 C1.34 14 0.68 14 0 14 C0 9.38 0 4.76 0 0 Z " fill="#FFFFFF" transform="translate(66,13)"/>
<path d="M0 0 C1.66611905 -0.042721 3.33382885 -0.04063832 5 0 C6 1 6 1 6.09765625 3.94140625 C6.08605469 5.13636719 6.07445313 6.33132812 6.0625 7.5625 C6.05347656 8.76003906 6.04445313 9.95757812 6.03515625 11.19140625 C6.02355469 12.11824219 6.01195313 13.04507813 6 14 C3.625 14.625 3.625 14.625 1 15 C-1 13 -1 13 -1.23046875 10.46875 C-1.21628906 9.4890625 -1.20210938 8.509375 -1.1875 7.5 C-1.18105469 6.5203125 -1.17460938 5.540625 -1.16796875 4.53125 C-1 2 -1 2 0 0 Z M2 2 C0.5216774 4.95664519 0.93967217 7.74229737 1 11 C1.99 11.33 2.98 11.66 4 12 C4 8.7 4 5.4 4 2 C3.34 2 2.68 2 2 2 Z " fill="#FFFFFF" transform="translate(79,30)"/>
<path d="M0 0 C1.67542976 0.28604898 3.34385343 0.61781233 5 1 C5 1.99 5 2.98 5 4 C4.34 4 3.68 4 3 4 C3 3.34 3 2.68 3 2 C2.34 2 1.68 2 1 2 C1.75150023 5.27773504 1.75150023 5.27773504 5 7 C5.1875 10.625 5.1875 10.625 5 14 C2.625 14.625 2.625 14.625 0 15 C-0.66 14.34 -1.32 13.68 -2 13 C-2 12.01 -2 11.02 -2 10 C-1.01 10 -0.02 10 1 10 C1 10.66 1 11.32 1 12 C1.66 12 2.32 12 3 12 C1.86695008 8.60085025 0.87481525 7.94745549 -2 6 C-1.125 1.125 -1.125 1.125 0 0 Z " fill="#FFFFFF" transform="translate(112,13)"/>
<path d="M0 0 C1.65 0 3.3 0 5 0 C5.33 1.32 5.66 2.64 6 4 C4.68 3.67 3.36 3.34 2 3 C2 3.66 2 4.32 2 5 C3.32 5.66 4.64 6.32 6 7 C6 9.31 6 11.62 6 14 C3.625 14.625 3.625 14.625 1 15 C0.34 14.34 -0.32 13.68 -1 13 C-1 12.01 -1 11.02 -1 10 C-0.34 10 0.32 10 1 10 C1 10.66 1 11.32 1 12 C1.99 12 2.98 12 4 12 C3.33131686 8.88667752 3.33131686 8.88667752 0.9375 7.8125 C0.298125 7.544375 -0.34125 7.27625 -1 7 C-0.67 4.69 -0.34 2.38 0 0 Z " fill="#FFFFFF" transform="translate(88,30)"/>
<path d="M0 0 C0.99 0 1.98 0 3 0 C3.99 4.62 4.98 9.24 6 14 C5.01 14 4.02 14 3 14 C3 13.01 3 12.02 3 11 C2.01 11 1.02 11 0 11 C0 11.99 0 12.98 0 14 C-0.99 14 -1.98 14 -3 14 C-2.69024532 12.22868439 -2.37709575 10.45796222 -2.0625 8.6875 C-1.88847656 7.70136719 -1.71445312 6.71523438 -1.53515625 5.69921875 C-1 3 -1 3 0 0 Z M1 6 C2 9 2 9 2 9 Z " fill="#FFFFFF" transform="translate(52,13)"/>
<path d="M0 0 C0.99 0 1.98 0 3 0 C3.33 1.65 3.66 3.3 4 5 C4.66 3.35 5.32 1.7 6 0 C6.66 0 7.32 0 8 0 C7.03644647 9.41002278 7.03644647 9.41002278 6 14 C4.68 13.67 3.36 13.34 2 13 C1.34 8.71 0.68 4.42 0 0 Z " fill="#FFFFFF" transform="translate(49,30)"/>
<path d="M0 0 C2.31 0 4.62 0 7 0 C7 0.66 7 1.32 7 2 C6.34 2 5.68 2 5 2 C5 5.96 5 9.92 5 14 C4.01 14 3.02 14 2 14 C2 10.04 2 6.08 2 2 C1.34 2 0.68 2 0 2 C0 1.34 0 0.68 0 0 Z " fill="#FFFFFF" transform="translate(70,30)"/>
<path d="M0 0 C1.98 0 3.96 0 6 0 C6 0.66 6 1.32 6 2 C4.68 2 3.36 2 2 2 C2 3.32 2 4.64 2 6 C2.99 6 3.98 6 5 6 C5 6.66 5 7.32 5 8 C4.01 8 3.02 8 2 8 C2 9.32 2 10.64 2 12 C3.32 12 4.64 12 6 12 C6 12.66 6 13.32 6 14 C4.02 14 2.04 14 0 14 C0 9.38 0 4.76 0 0 Z " fill="#FFFFFF" transform="translate(63,30)"/>
<path d="M0 0 C1.98 0 3.96 0 6 0 C6 0.66 6 1.32 6 2 C4.68 2 3.36 2 2 2 C2 3.32 2 4.64 2 6 C2.99 6 3.98 6 5 6 C5 6.66 5 7.32 5 8 C4.01 8 3.02 8 2 8 C2 9.32 2 10.64 2 12 C3.32 12 4.64 12 6 12 C6 12.66 6 13.32 6 14 C4.02 14 2.04 14 0 14 C0 9.38 0 4.76 0 0 Z " fill="#FFFFFF" transform="translate(103,13)"/>
<path d="M0 0 C2.66666667 0 5.33333333 0 8 0 C8.33 0.99 8.66 1.98 9 3 C9.99 2.01 10.98 1.02 12 0 C11.125 5.75 11.125 5.75 10 8 C9.34 8 8.68 8 8 8 C7.34 6.02 6.68 4.04 6 2 C5.01 3.98 4.02 5.96 3 8 C1.58622659 5.36095629 0.62759865 2.92879371 0 0 Z " fill="#FEFEFE" transform="translate(169,35)"/>
<path d="M0 0 C0.99 0 1.98 0 3 0 C3 4.62 3 9.24 3 14 C2.01 14 1.02 14 0 14 C0 9.38 0 4.76 0 0 Z " fill="#FFFFFF" transform="translate(58,30)"/>
<path d="M0 0 C3 1 3 1 4 3 C4.33 2.01 4.66 1.02 5 0 C5.66 0 6.32 0 7 0 C7 2.64 7 5.28 7 8 C6.01 7.67 5.02 7.34 4 7 C3.67 6.34 3.34 5.68 3 5 C2.67 5.99 2.34 6.98 2 8 C1.34 8 0.68 8 0 8 C0 5.36 0 2.72 0 0 Z " fill="#FFFFFF" transform="translate(162,24)"/>
<path d="M0 0 C0.33 0 0.66 0 1 0 C1 2.31 1 4.62 1 7 C3.41585574 6.96906827 3.41585574 6.96906827 6 6 C7.85916824 3.03292954 7.85916824 3.03292954 9 0 C9.66 0 10.32 0 11 0 C11.66 2.64 12.32 5.28 13 8 C12.34 8 11.68 8 11 8 C11 7.34 11 6.68 11 6 C10.01 6 9.02 6 8 6 C8 6.66 8 7.32 8 8 C5.36 8 2.72 8 0 8 C0 5.36 0 2.72 0 0 Z M9 2 C10 5 10 5 10 5 Z " fill="#FEFEFE" transform="translate(140,13)"/>
<path d="M0 0 C2.31 0 4.62 0 7 0 C7 0.66 7 1.32 7 2 C6.34 2 5.68 2 5 2 C5 5.96 5 9.92 5 14 C4.34 14 3.68 14 3 14 C3 10.04 3 6.08 3 2 C2.01 2 1.02 2 0 2 C0 1.34 0 0.68 0 0 Z " fill="#FFFFFF" transform="translate(90,13)"/>
<path d="M0 0 C2.31 0 4.62 0 7 0 C7 0.66 7 1.32 7 2 C6.34 2 5.68 2 5 2 C5 5.96 5 9.92 5 14 C4.34 14 3.68 14 3 14 C3 10.04 3 6.08 3 2 C2.01 2 1.02 2 0 2 C0 1.34 0 0.68 0 0 Z " fill="#FFFFFF" transform="translate(57,13)"/>
<path d="M0 0 C0.33 0 0.66 0 1 0 C1 11.55 1 23.1 1 35 C0.67 35 0.34 35 0 35 C0 23.45 0 11.9 0 0 Z " fill="#FFFFFF" transform="translate(128,10)"/>
<path d="M0 0 C0.33 0.99 0.66 1.98 1 3 C1.99 3 2.98 3 4 3 C4 2.01 4 1.02 4 0 C4.66 0 5.32 0 6 0 C6 2.64 6 5.28 6 8 C5.34 8 4.68 8 4 8 C4 7.01 4 6.02 4 5 C3.01 5 2.02 5 1 5 C0.67 5.99 0.34 6.98 0 8 C0 5.36 0 2.72 0 0 Z " fill="#FFFFFF" transform="translate(162,35)"/>
<path d="M0 0 C1.2065625 0.0309375 1.2065625 0.0309375 2.4375 0.0625 C2.1075 1.0525 1.7775 2.0425 1.4375 3.0625 C0.4475 2.4025 -0.5425 1.7425 -1.5625 1.0625 C-1.5625 3.0425 -1.5625 5.0225 -1.5625 7.0625 C-0.2425 6.4025 1.0775 5.7425 2.4375 5.0625 C2.4375 6.0525 2.4375 7.0425 2.4375 8.0625 C0.77138095 8.105221 -0.89632885 8.10313832 -2.5625 8.0625 C-3.5625 7.0625 -3.5625 7.0625 -3.6875 4.0625 C-3.52180824 0.08589776 -3.52180824 0.08589776 0 0 Z " fill="#FDFDFD" transform="translate(157.5625,34.9375)"/>
<path d="M0 0 C1.2065625 0.0309375 1.2065625 0.0309375 2.4375 0.0625 C2.4375 2.7025 2.4375 5.3425 2.4375 8.0625 C0.77138095 8.105221 -0.89632885 8.10313832 -2.5625 8.0625 C-3.5625 7.0625 -3.5625 7.0625 -3.6875 4.0625 C-3.52180824 0.08589776 -3.52180824 0.08589776 0 0 Z M-1.5625 1.0625 C-1.5625 3.0425 -1.5625 5.0225 -1.5625 7.0625 C-0.5725 7.0625 0.4175 7.0625 1.4375 7.0625 C1.4375 5.0825 1.4375 3.1025 1.4375 1.0625 C0.4475 1.0625 -0.5425 1.0625 -1.5625 1.0625 Z " fill="#FEFEFE" transform="translate(173.5625,23.9375)"/>
<path d="M0 0 C0.66 0 1.32 0 2 0 C2 4.62 2 9.24 2 14 C1.34 14 0.68 14 0 14 C0 9.38 0 4.76 0 0 Z " fill="#FFFFFF" transform="translate(99,13)"/>
<path d="M0 0 C0.66 0 1.32 0 2 0 C2 4.62 2 9.24 2 14 C1.34 14 0.68 14 0 14 C0 9.38 0 4.76 0 0 Z " fill="#FFFFFF" transform="translate(77,13)"/>
<path d="M0 0 C0.66 0 1.32 0 2 0 C2.66 2.64 3.32 5.28 4 8 C3.34 8 2.68 8 2 8 C2 7.34 2 6.68 2 6 C1.01 6 0.02 6 -1 6 C-1 6.66 -1 7.32 -1 8 C-1.66 8 -2.32 8 -3 8 C-1.125 1.125 -1.125 1.125 0 0 Z M0 2 C1 5 1 5 1 5 Z " fill="#FEFEFE" transform="translate(142,35)"/>
<path d="M0 0 C1.98 0 3.96 0 6 0 C6 2.64 6 5.28 6 8 C4 8 4 8 2.375 6.5 C1.92125 6.005 1.4675 5.51 1 5 C0.67 5.99 0.34 6.98 0 8 C0 5.36 0 2.72 0 0 Z M1 1 C1 1.99 1 2.98 1 4 C2.32 3.67 3.64 3.34 5 3 C5 2.34 5 1.68 5 1 C3.68 1 2.36 1 1 1 Z " fill="#FEFEFE" transform="translate(147,35)"/>
<path d="M0 0 C0.66 0 1.32 0 2 0 C2.66 2.64 3.32 5.28 4 8 C3.34 8 2.68 8 2 8 C2 7.34 2 6.68 2 6 C1.01 6 0.02 6 -1 6 C-1 6.66 -1 7.32 -1 8 C-1.66 8 -2.32 8 -3 8 C-1.125 1.125 -1.125 1.125 0 0 Z M0 2 C1 5 1 5 1 5 Z " fill="#FEFEFE" transform="translate(150,24)"/>
<path d="M0 0 C0.99 0.33 1.98 0.66 3 1 C4.1875 4.5625 4.1875 4.5625 5 8 C4.34 8 3.68 8 3 8 C3 7.34 3 6.68 3 6 C1.35 6.66 -0.3 7.32 -2 8 C-1.34 5.36 -0.68 2.72 0 0 Z M1 3 C2 5 2 5 2 5 Z " fill="#FEFEFE" transform="translate(183,35)"/>
<path d="M0 0 C0.66 0.66 1.32 1.32 2 2 C3.32 1.34 4.64 0.68 6 0 C5.814375 0.5775 5.62875 1.155 5.4375 1.75 C4.95976454 4.20692525 5.24270636 5.64397534 6 8 C4.68 7.34 3.36 6.68 2 6 C1.34 6.66 0.68 7.32 0 8 C0 5.36 0 2.72 0 0 Z " fill="#FEFEFE" transform="translate(140,24)"/>
<path d="M0 0 C1.65 0 3.3 0 5 0 C4.67 0.66 4.34 1.32 4 2 C3.01 1.67 2.02 1.34 1 1 C1 1.66 1 2.32 1 3 C2.98 3.495 2.98 3.495 5 4 C5 5.32 5 6.64 5 8 C3.35 8 1.7 8 0 8 C0.33 7.34 0.66 6.68 1 6 C1.99 6.33 2.98 6.66 4 7 C4 6.34 4 5.68 4 5 C2.68 4.67 1.36 4.34 0 4 C0 2.68 0 1.36 0 0 Z " fill="#FEFEFE" transform="translate(157,13)"/>
<path d="M0 0 C0.66 0 1.32 0 2 0 C2.33 0.99 2.66 1.98 3 3 C3.99 2.01 4.98 1.02 6 0 C5.125 5.75 5.125 5.75 4 8 C3.34 8 2.68 8 2 8 C1.34 5.36 0.68 2.72 0 0 Z " fill="#FEFEFE" transform="translate(163,13)"/>
<path d="M0 0 C1.65 0 3.3 0 5 0 C3.68 0.33 2.36 0.66 1 1 C1 1.66 1 2.32 1 3 C1.99 3 2.98 3 4 3 C4 3.66 4 4.32 4 5 C3.01 5 2.02 5 1 5 C1 5.66 1 6.32 1 7 C2.98 7.495 2.98 7.495 5 8 C3.35 8 1.7 8 0 8 C0 5.36 0 2.72 0 0 Z " fill="#FFFFFF" transform="translate(174,13)"/>
<path d="M0 0 C0.33 0 0.66 0 1 0 C1.33 1.98 1.66 3.96 2 6 C2.66 6 3.32 6 4 6 C4.33 4.02 4.66 2.04 5 0 C5.33 0 5.66 0 6 0 C6.04241723 2.33294775 6.04092937 4.66702567 6 7 C5 8 5 8 2.4375 8.0625 C1.633125 8.041875 0.82875 8.02125 0 8 C0 5.36 0 2.72 0 0 Z " fill="#FEFEFE" transform="translate(155,24)"/>
<path d="M0 0 C0.66 0 1.32 0 2 0 C2 2.64 2 5.28 2 8 C1.34 8 0.68 8 0 8 C0 5.36 0 2.72 0 0 Z " fill="#FFFFFF" transform="translate(186,13)"/>
<path d="M0 0 C0.33 0 0.66 0 1 0 C1 2.64 1 5.28 1 8 C-0.32 7.67 -1.64 7.34 -3 7 C-2.01 7 -1.02 7 0 7 C0 4.69 0 2.38 0 0 Z " fill="#FFFFFF" transform="translate(183,13)"/>
<path d="M0 0 C0.33 0 0.66 0 1 0 C1 2.64 1 5.28 1 8 C0.67 8 0.34 8 0 8 C0 5.36 0 2.72 0 0 Z " fill="#FFFFFF" transform="translate(189,35)"/>
<path d="M0 0 C0.33 0 0.66 0 1 0 C1 2.64 1 5.28 1 8 C0.67 8 0.34 8 0 8 C0 5.36 0 2.72 0 0 Z " fill="#FFFFFF" transform="translate(171,13)"/>
<path d="M0 0 C0.33 0 0.66 0 1 0 C1 2.64 1 5.28 1 8 C0.67 8 0.34 8 0 8 C0 5.36 0 2.72 0 0 Z " fill="#FFFFFF" transform="translate(154,13)"/>
</svg>
