<svg width="341" height="63" viewBox="0 0 341 63" fill="none" xmlns="http://www.w3.org/2000/svg">
<g clip-path="url(#clip0_529_1321)">
<path fill-rule="evenodd" clip-rule="evenodd" d="M38.0307 47.9567C36.2582 45.3094 35.3102 43.7112 36.6558 39.0955C38.52 32.7009 41.4869 26.5902 39.5319 19.8041C36.4389 9.0674 20.9866 3.64094 10.4419 1.8797C7.19057 1.3366 3.27764 0.616166 0 0.343567C0 8.08908 6.19453 22.676 10.8394 29.6311C12.1626 31.6126 13.5541 33.5116 15.0113 35.3412C16.6644 37.4165 17.9597 38.8159 19.8388 40.6949C22.5112 43.3674 24.6619 45.4842 27.7181 47.7885C28.5427 48.4103 30.0617 49.3943 30.5444 50.0529C29.1014 49.7167 27.9547 49.1881 26.462 48.7449C25.0573 48.328 23.4604 47.9289 22.1251 47.692C14.1648 46.2798 7.2811 47.74 2.64611 54.4957C1.9367 55.5297 1.18589 57.0289 0.598839 58.1382C4.8365 60.3804 11.2034 62.8895 16.4787 62.6391C19.7187 62.4851 21.2469 60.7455 22.3666 58.3453C22.9212 57.1571 23.2788 55.8459 23.6897 54.5776C24.4764 52.149 24.6448 52.9056 25.7531 51.2507C19.6747 51.7566 24.9393 63.9572 9.21765 60.0005C6.79846 59.3917 3.98741 57.91 2.39563 57.5392C2.74174 56.0537 3.92125 54.4347 4.85944 53.4151C8.62519 49.3231 14.5221 48.5991 20.3253 49.1922C24.3118 49.5996 32.1051 52.0927 35.7389 53.8421C44.4504 57.3208 54.8026 56.1674 64.159 56.1543C64.2309 53.1629 64.9968 44.0051 62.0771 49.1813C59.4102 53.9092 43.8161 53.4026 37.84 50.3948C35.6443 49.2898 32.5094 47.8968 28.0164 44.4954C26.3969 43.2817 25.1286 41.8938 23.6569 40.7698C14.6852 33.9182 4.569 15.6604 3.59337 3.93693L12.1524 5.55955C19.5911 7.19642 28.4561 10.1588 32.8609 16.2937C39.0328 24.8897 32.5351 35.5196 33.2699 42.2349C33.5659 44.9409 35.5846 47.3869 38.0307 47.9567Z" fill="#00875A"/>
<path d="M336.74 29.7573H341V33.4545H336.74V29.7573ZM335.655 38.3572C335.655 39.2949 335.796 40.1789 336.077 41.0094C336.358 41.84 336.74 42.5633 337.222 43.1798C337.705 43.7958 338.268 44.2847 338.91 44.6462C339.553 45.0079 340.25 45.189 341 45.189V48.5646C339.58 48.5646 338.247 48.2967 337.002 47.7606C335.755 47.2248 334.671 46.4948 333.746 45.5705C332.822 44.6462 332.092 43.5681 331.556 42.3357C331.02 41.1032 330.752 39.777 330.752 38.3572V23.1265C331.449 22.7514 332.193 22.4499 332.983 22.2222C333.773 21.9947 334.664 21.8804 335.655 21.8804V38.3572ZM322.595 38.3572C322.595 39.3217 322.735 40.2192 323.017 41.0498C323.298 41.8804 323.68 42.6035 324.162 43.2196C324.644 43.836 325.214 44.3249 325.87 44.6865C326.526 45.0482 327.216 45.2292 327.939 45.2292V48.5646C326.519 48.5646 325.193 48.2967 323.961 47.7606C322.729 47.2248 321.65 46.4948 320.726 45.5705C319.802 44.6462 319.072 43.5681 318.536 42.3357C318 41.1032 317.732 39.777 317.732 38.3572V20.5946C318.428 20.2198 319.172 19.9248 319.962 19.7107C320.753 19.4961 321.63 19.3892 322.595 19.3892V38.3572ZM311.704 48.5646C310.82 48.5646 310.063 48.2563 309.433 47.6402C308.804 47.0239 308.489 46.2607 308.489 45.3496C308.489 44.4656 308.804 43.7152 309.433 43.0992C310.063 42.4832 310.82 42.1749 311.704 42.1749C312.588 42.1749 313.345 42.4832 313.975 43.0992C314.604 43.7152 314.919 44.4656 314.919 45.3496C314.919 46.2607 314.604 47.0238 313.975 47.6402C313.345 48.2563 312.588 48.5646 311.704 48.5646ZM189.377 30.5609C190.073 30.1861 190.817 29.8845 191.607 29.657C192.397 29.4292 193.275 29.3153 194.239 29.3153V38.9196C194.239 40.3396 193.998 41.6658 193.516 42.8983C193.034 44.1307 192.364 45.2088 191.507 46.1331C190.649 47.0575 189.625 47.7874 188.432 48.3232C187.24 48.8591 185.947 49.1272 184.554 49.1272C183.134 49.1272 181.828 48.8591 180.636 48.3232C179.444 47.7874 178.419 47.0575 177.562 46.1331C176.705 45.2088 176.035 44.1307 175.553 42.8983C175.07 41.6658 174.829 40.3396 174.829 38.9196V30.5609C175.526 30.1861 176.269 29.8845 177.059 29.657C177.85 29.4292 178.741 29.3153 179.732 29.3153V38.9196C179.732 39.8576 179.846 40.7483 180.073 41.5921C180.301 42.436 180.623 43.1662 181.038 43.7822C181.453 44.3986 181.956 44.8875 182.545 45.2492C183.134 45.6107 183.804 45.7918 184.554 45.7918C185.278 45.7918 185.941 45.6107 186.543 45.2492C187.146 44.8875 187.655 44.3986 188.071 43.7822C188.486 43.1662 188.808 42.436 189.035 41.5921C189.263 40.7483 189.377 39.8576 189.377 38.9196L189.377 30.5609ZM166.792 30.8424C167.488 30.4671 168.232 30.1656 169.022 29.9381C169.813 29.7103 170.703 29.5968 171.695 29.5968V47.319C170.543 47.935 169.229 48.3232 167.756 48.484H166.792V30.8424ZM169.243 26.7832C168.466 26.7832 167.817 26.5157 167.294 25.9798C166.772 25.444 166.51 24.7876 166.51 24.0107C166.51 23.2339 166.772 22.5838 167.294 22.0616C167.817 21.5392 168.466 21.2781 169.243 21.2781C170.02 21.2781 170.677 21.5392 171.213 22.0616C171.748 22.5838 172.016 23.2339 172.016 24.0107C172.016 24.7876 171.748 25.444 171.213 25.9798C170.677 26.5157 170.02 26.7832 169.243 26.7832ZM159.679 29.3153C160.536 29.3153 161.333 29.4088 162.07 29.5968C162.806 29.7841 163.483 30.0253 164.099 30.3199L155.66 49.1272H153.048L144.569 30.3199C145.211 30.0253 145.895 29.7841 146.618 29.5968C147.342 29.4088 148.132 29.3153 148.989 29.3153L154.334 42.1749L159.679 29.3153ZM132.553 45.8316C133.276 45.8316 133.966 45.651 134.623 45.2894C135.279 44.9277 135.848 44.4388 136.331 43.8224C136.813 43.2064 137.194 42.4764 137.476 41.6323C137.757 40.7885 137.898 39.8977 137.898 38.9601C137.898 38.0221 137.757 37.1382 137.476 36.3076C137.194 35.4771 136.813 34.7471 136.331 34.1174C135.848 33.4878 135.279 32.9922 134.623 32.6307C133.966 32.269 133.276 32.0879 132.553 32.0879C131.803 32.0879 131.106 32.269 130.463 32.6307C129.82 32.9922 129.258 33.4878 128.776 34.1174C128.293 34.7471 127.912 35.4771 127.63 36.3076C127.349 37.1382 127.208 38.0221 127.208 38.9601C127.208 39.8977 127.349 40.7885 127.63 41.6323C127.912 42.4764 128.293 43.2064 128.776 43.8224C129.258 44.4388 129.82 44.9277 130.463 45.2894C131.106 45.651 131.803 45.8316 132.553 45.8316ZM132.553 28.7526C133.946 28.7526 135.266 29.0206 136.511 29.5564C137.757 30.0922 138.842 30.8225 139.766 31.7466C140.691 32.6709 141.421 33.7558 141.957 35.0014C142.493 36.2474 142.76 37.5668 142.76 38.9601C142.76 40.3798 142.493 41.706 141.957 42.9385C141.421 44.1709 140.691 45.2492 139.766 46.1733C138.842 47.0976 137.757 47.8276 136.511 48.3637C135.266 48.8995 133.946 49.1674 132.553 49.1674C131.133 49.1674 129.807 48.8995 128.575 48.3637C127.342 47.8276 126.264 47.0976 125.339 46.1733C124.415 45.2492 123.685 44.1709 123.149 42.9385C122.614 41.706 122.346 40.3798 122.346 38.9601C122.346 37.5668 122.614 36.2474 123.149 35.0014C123.685 33.7558 124.415 32.6709 125.339 31.7466C126.264 30.8225 127.342 30.0922 128.575 29.5564C129.807 29.0206 131.133 28.7526 132.553 28.7526ZM109.325 45.3094H120.135V48.5646H103.619V45.189L114.389 32.6505H120.135L109.325 45.3094ZM103.619 29.3956H120.135V32.6505L103.619 32.6505V29.3956ZM98.5553 29.3153C99.1713 29.3153 99.7674 29.3686 100.344 29.4758C100.919 29.5832 101.475 29.7438 102.011 29.9583L100.644 33.0122C99.9479 32.7447 99.2515 32.6373 98.5553 32.6909C97.8315 32.6909 97.1485 32.8718 96.5053 33.2335C95.8627 33.5952 95.3 34.084 94.8176 34.7001C94.3356 35.3165 93.9535 36.0397 93.6723 36.8703C93.3908 37.7008 93.2507 38.5847 93.2507 39.5227V47.2786C92.5541 47.6534 91.8103 47.9486 91.0202 48.1625C90.2297 48.3771 89.339 48.484 88.348 48.484V39.5227C88.348 38.1294 88.6158 36.81 89.1513 35.564C89.6871 34.3184 90.4174 33.2335 91.3414 32.3092C92.2657 31.3851 93.3442 30.6549 94.5767 30.1191C95.8087 29.5832 97.135 29.3153 98.5553 29.3153ZM75.7293 28.7928C77.1492 28.7928 78.4754 29.0608 79.7079 29.5968C80.9399 30.1322 82.0184 30.8622 82.9427 31.7865C83.867 32.7111 84.5971 33.7893 85.1329 35.0218C85.6687 36.2543 85.9369 37.5804 85.9369 39.0002V48.5646C84.9721 48.5646 84.0946 48.4572 83.3044 48.2431C82.514 48.0286 81.7705 47.7341 81.0738 47.3587V39.0002C81.0738 38.5177 81.0402 38.0557 80.9733 37.6138C80.9063 37.1718 80.806 36.7363 80.672 36.3076C80.2433 35.0752 79.5937 34.0705 78.723 33.2937C77.8526 32.5165 76.8545 32.1282 75.7293 32.1282C75.0056 32.1282 74.3159 32.3092 73.6594 32.6709C73.0032 33.0326 72.4338 33.5214 71.9518 34.1375C71.4692 34.7538 71.0878 35.4771 70.8063 36.3076C70.5251 37.1382 70.3844 38.0357 70.3844 39.0002C70.3844 39.9377 70.5251 40.8221 70.8063 41.6527C71.0878 42.4832 71.4692 43.2064 71.9518 43.8224C72.4338 44.4388 73.0032 44.9277 73.6594 45.2894C74.3159 45.651 75.0056 45.8316 75.7293 45.8316C76.5866 45.8316 77.3835 45.5909 78.1201 45.1084C78.8569 44.6264 79.4797 43.9563 79.989 43.0992V48.2831C79.3457 48.578 78.6696 48.8057 77.9593 48.9665C77.2496 49.1272 76.506 49.2077 75.7293 49.2077C74.309 49.2077 72.9832 48.9397 71.7508 48.4039C70.5184 47.868 69.4398 47.1378 68.5155 46.2137C67.5912 45.2894 66.8613 44.2109 66.3253 42.9789C65.7898 41.7462 65.5218 40.4202 65.5218 39.0002C65.5218 37.5804 65.7898 36.2543 66.3253 35.0218C66.8613 33.7893 67.5912 32.7111 68.5155 31.7866C69.4398 30.8622 70.5184 30.1322 71.7508 29.5968C72.9833 29.0608 74.309 28.7928 75.7293 28.7928ZM63.5124 39.0002C63.5124 40.4202 63.2443 41.7462 62.7084 42.9788C62.173 44.2108 61.4428 45.2894 60.5187 46.2137C59.5939 47.1378 58.5091 47.868 57.2634 48.4039C56.0174 48.9397 54.6848 49.2076 53.2651 49.2076C51.8448 49.2076 50.5186 48.9397 49.2866 48.4039C48.0542 47.868 46.9755 47.1378 46.0513 46.2137C45.127 45.2894 44.3971 44.2108 43.861 42.9788C43.3256 41.7462 43.0576 40.4202 43.0576 39.0002C43.0576 37.5804 43.3256 36.2543 43.861 35.0218C44.3971 33.7893 45.127 32.7111 46.0513 31.7865C46.9755 30.8622 48.0542 30.1322 49.2866 29.5968C50.5186 29.0608 51.8448 28.7928 53.2651 28.7928C54.7917 28.7928 56.212 29.1008 57.5246 29.7171V34.861C57.0421 34.0305 56.4329 33.3675 55.6961 32.8718C54.9591 32.3761 54.1489 32.1282 53.2651 32.1282C52.5414 32.1282 51.8583 32.3092 51.2153 32.6709C50.5724 33.0326 50.0098 33.5214 49.5273 34.1375C49.0453 34.7538 48.6634 35.477 48.3823 36.3076C48.1008 37.1381 47.9604 38.0357 47.9604 39.0002C47.9604 39.9377 48.1008 40.8289 48.3823 41.6726C48.6634 42.5166 49.0453 43.2468 49.5273 43.8628C50.0098 44.4788 50.5724 44.968 51.2153 45.3298C51.8583 45.6912 52.5414 45.872 53.2651 45.872C53.9884 45.872 54.6714 45.6912 55.3144 45.3298C55.9572 44.9681 56.5198 44.4788 57.0023 43.8628C57.4843 43.2468 57.8726 42.5298 58.1678 41.7128C58.4625 40.8954 58.6096 40.0184 58.6096 39.0804V20.5946C59.3061 20.2198 60.0498 19.9248 60.84 19.7107C61.6304 19.4961 62.5211 19.3892 63.5124 19.3892L63.5124 39.0002Z" fill="#010101"/>
<path d="M301.256 37.4329C302.863 38.0489 304.089 38.8662 304.933 39.8842C305.777 40.9022 306.145 42.0943 306.038 43.4609C305.984 44.4254 305.717 45.2757 305.234 46.0127C304.752 46.7495 304.142 47.3587 303.406 47.8412C302.669 48.3232 301.825 48.6718 300.874 48.8859C299.923 49.1005 298.952 49.1806 297.961 49.1272C296.862 49.0467 295.777 48.7456 294.705 48.2229C293.634 47.7005 292.709 47.0641 291.933 46.3141C292.174 45.8316 292.448 45.3695 292.756 44.9277C293.064 44.4856 293.446 44.037 293.902 43.5813C294.652 44.4924 295.395 45.102 296.132 45.4097C296.869 45.718 297.545 45.8986 298.162 45.9526C299.394 46.0326 300.305 45.8384 300.894 45.3695C301.483 44.9011 301.805 44.3048 301.859 43.5813C301.885 43.1258 301.798 42.7375 301.597 42.4162C301.396 42.0943 301.102 41.8134 300.713 41.572C300.325 41.3307 299.836 41.1032 299.247 40.889C298.657 40.6745 297.987 40.4334 297.237 40.1657C296.219 39.7638 295.382 39.3285 294.725 38.8595C294.069 38.3906 293.554 37.9018 293.178 37.3927C292.803 36.8838 292.549 36.3677 292.415 35.8455C292.281 35.3233 292.241 34.8073 292.294 34.2984C292.348 33.6554 292.542 33.019 292.877 32.3893C293.212 31.7597 293.674 31.2039 294.263 30.7219C294.853 30.2394 295.569 29.8777 296.413 29.6366C297.257 29.3956 298.215 29.3286 299.287 29.4356C300.465 29.5696 301.544 29.8777 302.522 30.3597C303.499 30.8424 304.377 31.4584 305.154 32.2089C304.913 32.6909 304.638 33.1597 304.33 33.615C304.022 34.0705 303.64 34.5125 303.185 34.9412C302.408 34.0305 301.651 33.4208 300.914 33.1128C300.178 32.8048 299.501 32.6372 298.885 32.6107C298.536 32.5835 298.201 32.6239 297.88 32.731C297.559 32.8384 297.284 32.9921 297.056 33.1931C296.829 33.3943 296.661 33.6354 296.554 33.9165C296.447 34.1981 296.447 34.4995 296.554 34.8208C296.661 35.1155 296.822 35.3631 297.036 35.564C297.251 35.7649 297.545 35.9591 297.92 36.1471C298.296 36.3344 298.751 36.5285 299.287 36.7295C299.822 36.9304 300.479 37.1649 301.256 37.4329ZM279.515 45.8316C280.239 45.8316 280.928 45.651 281.585 45.2894C282.241 44.9277 282.81 44.4388 283.293 43.8224C283.775 43.2064 284.156 42.4764 284.438 41.6323C284.719 40.7885 284.86 39.8977 284.86 38.9601C284.86 38.0221 284.719 37.1382 284.438 36.3076C284.156 35.4771 283.775 34.7471 283.293 34.1174C282.81 33.4878 282.241 32.9922 281.585 32.6307C280.928 32.269 280.239 32.0879 279.515 32.0879C278.765 32.0879 278.068 32.269 277.425 32.6307C276.782 32.9922 276.22 33.4878 275.738 34.1174C275.255 34.7471 274.873 35.4771 274.592 36.3076C274.311 37.1382 274.17 38.0221 274.17 38.9601C274.17 39.8977 274.311 40.7885 274.592 41.6323C274.873 42.4764 275.255 43.2064 275.738 43.8224C276.22 44.4388 276.782 44.9277 277.425 45.2894C278.068 45.651 278.765 45.8316 279.515 45.8316ZM279.515 28.7526C280.908 28.7526 282.228 29.0206 283.473 29.5564C284.719 30.0922 285.804 30.8225 286.728 31.7466C287.653 32.6709 288.383 33.7558 288.919 35.0014C289.455 36.2474 289.722 37.5668 289.722 38.9601C289.722 40.3798 289.455 41.706 288.919 42.9385C288.383 44.1709 287.653 45.2492 286.728 46.1733C285.804 47.0976 284.719 47.8276 283.473 48.3637C282.228 48.8995 280.908 49.1674 279.515 49.1674C278.095 49.1674 276.769 48.8995 275.537 48.3637C274.304 47.8276 273.226 47.0976 272.301 46.1733C271.377 45.2492 270.647 44.1709 270.111 42.9385C269.576 41.706 269.308 40.3798 269.308 38.9601C269.308 37.5668 269.576 36.2474 270.111 35.0014C270.647 33.7558 271.377 32.6709 272.301 31.7466C273.226 30.8225 274.304 30.0922 275.537 29.5564C276.769 29.0206 278.095 28.7526 279.515 28.7526ZM261.753 38.3572C261.753 39.3217 261.893 40.2192 262.174 41.0498C262.456 41.8804 262.838 42.6035 263.32 43.2196C263.802 43.836 264.371 44.3249 265.028 44.6865C265.684 45.0482 266.374 45.2292 267.097 45.2292V48.5646C265.677 48.5646 264.351 48.2967 263.119 47.7606C261.887 47.2248 260.808 46.4948 259.884 45.5705C258.96 44.6462 258.23 43.5681 257.694 42.3357C257.158 41.1032 256.89 39.777 256.89 38.3572V20.5946C257.586 20.2198 258.33 19.9248 259.12 19.7107C259.91 19.4961 260.788 19.3892 261.753 19.3892V38.3572ZM249.295 36.4281C250.741 37.3391 251.9 38.5446 252.771 40.0449C253.642 41.5452 254.077 43.2196 254.077 45.0684V47.3587C253.38 47.7341 252.637 48.0286 251.847 48.2431C251.056 48.4572 250.179 48.5646 249.214 48.5646V44.1841C249.214 43.2468 249.073 42.4026 248.792 41.6527C248.511 40.9022 248.129 40.2726 247.647 39.7638C247.165 39.2547 246.595 38.8662 245.939 38.5983C245.283 38.3304 244.593 38.1964 243.87 38.1964C243.012 38.1964 242.215 38.444 241.478 38.94C240.742 39.4357 240.119 40.0987 239.61 40.9289V35.7048C240.922 35.0888 242.343 34.7805 243.87 34.7805C244.459 34.7805 244.908 34.5931 245.216 34.218C245.524 33.8427 245.812 33.3875 246.08 32.8514C246.267 32.5034 246.461 32.135 246.662 31.7465C246.863 31.3578 247.044 31.0029 247.205 30.6817C247.393 30.3064 247.58 29.9449 247.768 29.5968C248.625 29.5968 249.422 29.6903 250.159 29.8777C250.895 30.0652 251.572 30.3064 252.188 30.6011L249.295 36.4281ZM238.525 47.3587C237.828 47.7341 237.085 48.0286 236.294 48.2431C235.504 48.4572 234.627 48.5646 233.662 48.5646V20.5946C234.332 20.2198 235.062 19.9248 235.853 19.7107C236.643 19.4961 237.533 19.3892 238.525 19.3892V47.3587ZM223.253 28.7526C224.406 28.7526 225.504 28.9604 226.549 29.3755C227.594 29.7909 228.498 30.3468 229.261 31.0434C230.025 31.7397 230.628 32.5437 231.07 33.4545C231.512 34.3654 231.706 35.3165 231.653 36.3076C231.599 37.4863 231.21 38.4843 230.487 39.3018C229.764 40.1187 228.833 40.7483 227.694 41.1906C226.556 41.6323 225.256 41.9001 223.796 41.9939C222.336 42.0877 220.842 41.9875 219.315 41.6924C218.941 40.7283 218.753 39.7368 218.753 38.7187V38.2367C220.762 38.6387 222.336 38.7591 223.475 38.5984C224.613 38.4376 225.464 38.1563 226.027 37.7542C226.589 37.3523 226.937 36.9304 227.071 36.4888C227.205 36.0465 227.272 35.745 227.272 35.5845C227.272 35.4505 227.239 35.2024 227.172 34.8409C227.105 34.4792 226.931 34.1107 226.649 33.736C226.368 33.3607 225.953 33.0326 225.403 32.7511C224.854 32.4699 224.084 32.3292 223.093 32.3292C222.316 32.3292 221.613 32.4968 220.983 32.8316C220.353 33.1666 219.811 33.6354 219.356 34.2378C218.9 34.8409 218.545 35.564 218.29 36.4082C218.036 37.252 217.909 38.1697 217.909 39.161C217.909 40.0987 218.049 40.9692 218.331 41.773C218.612 42.5768 218.994 43.2802 219.476 43.8828C219.958 44.4856 220.521 44.9613 221.164 45.3094C221.807 45.6579 222.503 45.8316 223.253 45.8316C223.897 45.8854 224.499 45.8252 225.062 45.6511C225.625 45.4767 226.12 45.256 226.549 44.9879C227.031 44.6933 227.487 44.3448 227.915 43.943L230.286 46.3544C229.376 47.2384 228.317 47.935 227.111 48.444C225.906 48.9529 224.62 49.2077 223.253 49.2077C221.834 49.2077 220.501 48.9397 219.255 48.4039C218.009 47.868 216.924 47.1378 216 46.2137C215.076 45.2894 214.346 44.2109 213.81 42.9789C213.274 41.7462 213.006 40.4202 213.006 39.0002C213.006 37.5804 213.274 36.2474 213.81 35.0014C214.346 33.7558 215.076 32.6709 216 31.7466C216.924 30.8225 218.009 30.0922 219.255 29.5564C220.501 29.0206 221.834 28.7526 223.253 28.7526ZM205.974 37.4329C207.581 38.0489 208.807 38.8662 209.651 39.8842C210.495 40.9022 210.863 42.0943 210.756 43.4609C210.702 44.4254 210.434 45.2757 209.952 46.0127C209.47 46.7495 208.86 47.3587 208.124 47.8412C207.387 48.3232 206.543 48.6718 205.592 48.8859C204.64 49.1005 203.67 49.1806 202.679 49.1272C201.58 49.0467 200.495 48.7456 199.423 48.2229C198.351 47.7005 197.427 47.0641 196.65 46.3141C196.891 45.8316 197.166 45.3695 197.474 44.9277C197.782 44.4856 198.164 44.037 198.619 43.5813C199.37 44.4924 200.113 45.102 200.85 45.4097C201.587 45.718 202.263 45.8986 202.879 45.9526C204.112 46.0326 205.023 45.8384 205.612 45.3695C206.201 44.9011 206.523 44.3048 206.576 43.5813C206.603 43.1258 206.516 42.7375 206.315 42.4162C206.114 42.0943 205.82 41.8134 205.431 41.572C205.042 41.3307 204.554 41.1032 203.964 40.889C203.375 40.6745 202.705 40.4334 201.955 40.1657C200.937 39.7638 200.099 39.3285 199.443 38.8595C198.787 38.3906 198.271 37.9018 197.896 37.3927C197.521 36.8838 197.266 36.3677 197.133 35.8455C196.999 35.3233 196.958 34.8073 197.012 34.2984C197.066 33.6554 197.26 33.019 197.595 32.3893C197.93 31.7597 198.392 31.2039 198.981 30.7219C199.57 30.2394 200.287 29.8777 201.131 29.6366C201.975 29.3956 202.933 29.3286 204.005 29.4356C205.183 29.5696 206.262 29.8777 207.24 30.3597C208.217 30.8424 209.095 31.4584 209.872 32.2089C209.631 32.6909 209.356 33.1597 209.048 33.615C208.74 34.0705 208.358 34.5125 207.903 34.9412C207.125 34.0305 206.369 33.4208 205.632 33.1128C204.895 32.8048 204.219 32.6372 203.603 32.6107C203.254 32.5835 202.919 32.6239 202.598 32.731C202.276 32.8384 202.002 32.9921 201.774 33.1931C201.546 33.3943 201.379 33.6354 201.272 33.9165C201.165 34.1981 201.165 34.4995 201.272 34.8208C201.379 35.1155 201.54 35.3631 201.754 35.564C201.968 35.7649 202.263 35.9591 202.638 36.1471C203.013 36.3344 203.469 36.5285 204.005 36.7295C204.54 36.9304 205.197 37.1649 205.974 37.4329Z" fill="#00875A"/>
</g>
<defs>
<clipPath id="clip0_529_1321">
<rect width="341" height="62.3128" fill="white" transform="translate(0 0.343567)"/>
</clipPath>
</defs>
</svg>
