<?xml version="1.0" encoding="UTF-8"?>
<svg version="1.1" xmlns="http://www.w3.org/2000/svg" width="166" height="27">
<path d="M0 0 C3.77740757 1.92724876 4.76352465 3.59010939 6.875 7.25 C8.50406345 12.6802115 8.13021851 16.57810319 5.6875 21.8125 C3.18081157 25.06191093 1.30042093 26.8014488 -2.83984375 27.43359375 C-11.16306189 27.44408961 -11.16306189 27.44408961 -15.0625 25.375 C-18.1841857 21.54841753 -19.80919031 18.49921898 -20.4375 13.5625 C-19.81369735 8.48296416 -18.02213051 4.91499777 -14.23046875 1.32421875 C-9.89979679 -1.24688071 -4.85948797 -0.58580129 0 0 Z M-14 8 C-15.55024464 11.10048928 -15.28992015 13.57894218 -15 17 C-13.20437595 19.75329021 -11.94745078 21.52627461 -9 23 C-5.12785818 23.43023798 -3.47503629 23.31669086 -0.1875 21.125 C2.60921179 18.40819426 2.94303123 17.60386898 3.3125 13.6875 C2.95124058 9.42463889 1.98007946 7.98007946 -1 5 C-6.2981842 2.3509079 -10.0084938 4.12253683 -14 8 Z " fill="#000000" transform="translate(46,0)"/>
<path d="M0 0 C3.8053125 -0.12375 3.8053125 -0.12375 7.6875 -0.25 C8.87218872 -0.30462402 8.87218872 -0.30462402 10.08081055 -0.36035156 C13.83470076 -0.41920633 15.62930143 -0.23149951 18.90234375 1.8125 C22.05173596 5.09678238 23.87774314 8.42771572 24.09765625 13.0546875 C23.72764121 17.83780872 22.40357661 20.69096718 19 24 C14.83610868 27.09870982 11.82108501 27.33143229 6.6875 27.1875 C3.3771875 27.0946875 3.3771875 27.0946875 0 27 C0 18.09 0 9.18 0 0 Z M4 4 C4 9.94 4 15.88 4 22 C10.72106907 22.66884892 10.72106907 22.66884892 16.5625 20.125 C18.99813758 16.52449228 19.34291082 14.37211289 19 10 C17.23526445 6.28843126 17.23526445 6.28843126 14 4 C12.29297265 3.93003986 10.58331997 3.91559846 8.875 3.9375 C7.26625 3.958125 5.6575 3.97875 4 4 Z " fill="#000000" transform="translate(93,0)"/>
<path d="M0 0 C15.13392857 -0.80357143 15.13392857 -0.80357143 19.375 2.8125 C22.87437267 6.44646393 23.29708571 10.01846708 23.21484375 15.0078125 C22.75380641 19.28288604 20.56257932 21.50602791 17.4375 24.25 C11.02199479 28.85600374 11.14589764 27 0 27 C0 18.09 0 9.18 0 0 Z M4 4 C4 9.94 4 15.88 4 22 C12.35371403 22.82018335 12.35371403 22.82018335 16.0625 20 C18.20766662 16.67845169 18.7595293 14.82131981 18.47265625 10.9375 C17.59426669 7.33682874 16.05067422 5.99227704 13 4 C10.03 4 7.06 4 4 4 Z " fill="#000000" transform="translate(0,0)"/>
<path d="M0 0 C1.04285156 0.00386719 2.08570313 0.00773438 3.16015625 0.01171875 C5.9375 0.3125 5.9375 0.3125 8.9375 2.3125 C8.6075 3.6325 8.2775 4.9525 7.9375 6.3125 C7.298125 6.1475 6.65875 5.9825 6 5.8125 C1.96163348 5.15317485 -1.98057258 5.23246221 -6.0625 5.3125 C-6.0625 6.9625 -6.0625 8.6125 -6.0625 10.3125 C-5.31484375 10.42207031 -4.5671875 10.53164062 -3.796875 10.64453125 C-2.81203125 10.80308594 -1.8271875 10.96164062 -0.8125 11.125 C0.16203125 11.27582031 1.1365625 11.42664062 2.140625 11.58203125 C5.13125046 12.36310243 6.75673668 13.13173668 8.9375 15.3125 C9.80501918 22.14421355 9.80501918 22.14421355 7.28125 25.54296875 C4.30312204 27.79145536 2.63286252 27.78912247 -1.0625 27.6875 C-2.09375 27.67460937 -3.125 27.66171875 -4.1875 27.6484375 C-6.96905972 27.32341829 -8.68429651 26.74170883 -11.0625 25.3125 C-10.7325 23.9925 -10.4025 22.6725 -10.0625 21.3125 C-9.4025 21.4775 -8.7425 21.6425 -8.0625 21.8125 C-4.33150206 22.43433299 -0.84376622 22.37658926 2.9375 22.3125 C3.5975 20.6625 4.2575 19.0125 4.9375 17.3125 C4.03386719 17.14234375 3.13023437 16.9721875 2.19921875 16.796875 C1.01972656 16.55453125 -0.15976563 16.3121875 -1.375 16.0625 C-3.13263672 15.71445312 -3.13263672 15.71445312 -4.92578125 15.359375 C-8.36014048 14.21316295 -9.43538725 13.50187681 -11.0625 10.3125 C-10.95550548 4.21381251 -10.95550548 4.21381251 -8.3828125 1.6171875 C-5.42443945 -0.04627479 -3.37762397 -0.0544103 0 0 Z " fill="#000000" transform="translate(157.0625,-0.3125)"/>
<path d="M0 0 C1.32 0 2.64 0 4 0 C4.02578125 1.25296875 4.0515625 2.5059375 4.078125 3.796875 C4.13441169 5.44795123 4.1917589 7.09899155 4.25 8.75 C4.26417969 9.575 4.27835937 10.4 4.29296875 11.25 C4.44993436 15.14274713 4.53977993 17.3558865 6.84765625 20.5859375 C9.01545495 22.30874581 9.01545495 22.30874581 12.1875 21.875 C13.5796875 21.441875 13.5796875 21.441875 15 21 C16.14654482 18.70691037 16.19729117 17.20090344 16.31640625 14.6484375 C16.35830078 13.79765625 16.40019531 12.946875 16.44335938 12.0703125 C16.48267578 11.18085938 16.52199219 10.29140625 16.5625 9.375 C16.60568359 8.4778125 16.64886719 7.580625 16.69335938 6.65625 C16.79956861 4.43765717 16.90161194 2.2189512 17 0 C18.65 0 20.3 0 22 0 C22.08115993 3.06303578 22.14057409 6.12390815 22.1875 9.1875 C22.21263672 10.05181641 22.23777344 10.91613281 22.26367188 11.80664062 C22.33316963 17.85294532 21.49464916 21.21750671 17.375 25.8125 C13.63242886 27.68378557 10.09453193 27.63611478 6 27 C2.21835602 25.06894776 1.24889854 23.5996192 -0.375 19.6875 C-1.69352129 13.27802149 -0.62263745 6.461967 0 0 Z " fill="#000000" transform="translate(121,0)"/>
<path d="M0 0 C2.93804996 -0.08086376 5.87388075 -0.1404283 8.8125 -0.1875 C9.64587891 -0.21263672 10.47925781 -0.23777344 11.33789062 -0.26367188 C12.54155273 -0.27817383 12.54155273 -0.27817383 13.76953125 -0.29296875 C14.87711792 -0.31653442 14.87711792 -0.31653442 16.00708008 -0.34057617 C18.56836423 0.0971295 19.42656574 0.97051541 21 3 C21.5 5.4375 21.5 5.4375 21 8 C18.1778976 10.90152367 16.57621537 11.92950901 12.51953125 12.42578125 C11.29621094 12.38839844 10.07289062 12.35101563 8.8125 12.3125 C7.58144531 12.28800781 6.35039063 12.26351563 5.08203125 12.23828125 C2 12 2 12 0 11 C0 7.37 0 3.74 0 0 Z " fill="#020200" transform="translate(58,0)"/>
<path d="M0 0 C3.15895033 2.52198166 5.3472409 5.30522193 7 9 C6.67 9.99 6.34 10.98 6 12 C4.68 12 3.36 12 2 12 C-1 7.92857143 -1 7.92857143 -1 5 C-3.64 5.33 -6.28 5.66 -9 6 C-9 7.98 -9 9.96 -9 12 C-10.65 12 -12.3 12 -14 12 C-14 8.37 -14 4.74 -14 1 C-9.68253565 -1.15873217 -4.63726049 -0.93807178 0 0 Z " fill="#000000" transform="translate(72,15)"/>
<path d="M0 0 C1.32 0 2.64 0 4 0 C4 8.91 4 17.82 4 27 C2.68 27 1.36 27 0 27 C0 18.09 0 9.18 0 0 Z " fill="#000000" transform="translate(83,0)"/>
<path d="M0 0 C4.29 0 8.58 0 13 0 C13.33 1.32 13.66 2.64 14 4 C13 5 13 5 10.05859375 5.09765625 C8.26615234 5.08025391 8.26615234 5.08025391 6.4375 5.0625 C4.64119141 5.04896484 4.64119141 5.04896484 2.80859375 5.03515625 C1.88175781 5.02355469 0.95492187 5.01195312 0 5 C0 3.35 0 1.7 0 0 Z " fill="#D7D700" transform="translate(61,3)"/>
</svg>
