<svg version="1.2" xmlns="http://www.w3.org/2000/svg" viewBox="0 0 581 235" width="581" height="235">
	<style>
		.s0 { fill: #231f20 } 
		.s1 { fill: #ec1c24 } 
	</style>
	<path class="s0" d="m159.98 106.95h23.06c-4.25 33.02-26.91 60.34-57.32 71.34l-11.1-66.18h-7.99v-25.72h-6.29-6.28v14.5h-29.9v6.06h29.9v5.16h-7.99l-11.54 68.74c-38.1-9.6-66.39-44.14-66.39-85.17 0-48.43 39.4-87.83 87.83-87.83 24.41 0 46.52 10.02 62.45 26.15l4.19-4.38c-17.02-17.17-40.61-27.83-66.64-27.83-51.77 0-93.89 42.12-93.89 93.88 0 44.04 30.48 81.07 71.45 91.16l-6.43 38.32 12.22-37.1c5.21 0.94 10.57 1.46 16.05 1.49l4.97 41.07 5.04-41.53q7.91-0.8 15.39-2.87l12.82 38.94-6.85-40.79c33.27-11.58 58.08-41.39 62.41-77.41h0.01v-6.06h-29.18zm-78.75 75.29l9.69-29.42 3.71 30.65q-6.85-0.11-13.4-1.23zm24.9 0.66l3.64-30.08 9.1 27.64q-6.21 1.68-12.74 2.44z"/>
	<path fill-rule="evenodd" class="s0" d="m113.01 100.89h29.89v6.06h-29.89z"/>
	<path fill-rule="evenodd" class="s0" d="m212.02 100.89h29.9v6.06h-29.9z"/>
	<path fill-rule="evenodd" class="s0" d="m261.43 100.89h29.9v6.06h-29.9z"/>
	<path fill-rule="evenodd" class="s0" d="m310.84 100.89h29.9v6.06h-29.9z"/>
	<path fill-rule="evenodd" class="s0" d="m360.26 100.89h29.89v6.06h-29.89z"/>
	<path fill-rule="evenodd" class="s0" d="m409.67 100.89h29.89v6.06h-29.89z"/>
	<path fill-rule="evenodd" class="s0" d="m459.08 100.89h29.89v6.06h-29.89z"/>
	<path fill-rule="evenodd" class="s0" d="m508.49 100.89h29.89v6.06h-29.89z"/>
	<path fill-rule="evenodd" class="s0" d="m15.32 100.89h29.89v6.06h-29.89z"/>
	<path fill-rule="evenodd" class="s0" d="m97.31 247.41h6.06v29.89h-6.06z"/>
	<path fill-rule="evenodd" class="s0" d="m97.31 51.08h6.06v29.9h-6.06z"/>
	<path fill-rule="evenodd" class="s0" d="m97.31 296.82h6.06v29.89h-6.06z"/>
	<path fill-rule="evenodd" class="s0" d="m97.31 346.23h6.06v29.9h-6.06z"/>
	<path fill-rule="evenodd" class="s0" d="m97.31 395.64h6.06v29.9h-6.06z"/>
	<path fill-rule="evenodd" class="s0" d="m100.35 469.31l22.7-41.66h-45.39z"/>
	<path fill-rule="evenodd" class="s0" d="m539.25 81.22v45.39l41.66-22.69z"/>
	<path class="s1" d="m211.59 49.24q5.16-5.43 13.17-5.43 3.22 0 6.4 1.2 3.19 1.2 3.97 1.2 0.84 0 1.34-0.58 0.51-0.58 0.84-1.77h1.44v12.11h-1.31q-1.88-3.94-3.82-6.22-3.65-4.2-8.25-4.2-5.01 0-7.31 4.35-2.3 4.35-2.3 12.24 0 6.48 2.14 11.55 2.13 5.07 8.25 5.07 3.32 0 4.46-1.39 0.65-0.78 0.65-2.38v-5.46q0-2.35-1.44-3.09-0.93-0.45-3.79-0.5v-1.32h17.75v1.32q-2.68 0.1-3.55 1.07-0.87 0.98-0.87 3.66v6.6q-1.72 1.06-5.57 2.12-3.84 1.07-8.6 1.07-8.62 0-13.78-5.44-4.81-5.09-4.81-12.75 0-7.74 4.99-13.03z"/>
	<path class="s1" d="m245.83 79.47v-1.32q2.23-0.07 3.16-0.6 1.45-0.81 1.45-3.04v-25.09q0-2.26-1.5-3.04-0.86-0.47-3.11-0.6v-1.31h29.85v10.44h-1.27q-0.98-5.01-3.35-6.85-2.36-1.85-8.61-1.85-2.38 0-3.02 0.49-0.65 0.5-0.65 1.96v11.99q4.43 0.05 6-1.6 1.56-1.66 2.4-6.06h1.31v17.5h-1.31q-0.56-4.42-2.27-6.23-1.7-1.81-6.13-1.81v12.54q0 1.65 0.85 2.24 0.85 0.6 3.48 0.6 4.95 0 8.09-1.93 3.14-1.92 5.56-7.21h1.45l-2.1 10.78z"/>
	<path class="s1" d="m312.66 48.74q5.33 5.18 5.33 13.35 0 8.17-5.33 13.36-5.21 5.06-13.03 5.06-8.29 0-13.53-5.54-4.88-5.21-4.88-12.6 0-8.14 5.11-13.38 5.16-5.31 13.3-5.31 7.84 0 13.03 5.06zm-5.04 23.12q1.17-3.75 1.17-9.77 0-8.27-2.47-12.47-2.47-4.19-6.7-4.19-5.88 0-8.06 7-1.14 3.72-1.14 9.66 0 6.05 1.17 9.77 2.15 6.9 8.03 6.9 5.82 0 8-6.9z"/>
	<path class="s1" d="m321.66 67.38h1.49q1.24 5.81 4 8.44 2.75 2.64 6.32 2.64 3.46 0 4.92-1.81 1.46-1.81 1.46-3.81 0-2.33-1.53-3.8-1-0.96-4.08-2.5l-3.3-1.67q-4.91-2.48-6.93-4.92-2.02-2.43-2.02-5.99 0-3.8 2.68-7.09 2.67-3.29 8.19-3.29 2.81 0 5.44 0.86 2.62 0.86 2.99 0.86 0.85 0 1.17-0.49 0.33-0.5 0.52-1.31h1.55v11.28h-1.44q-1.02-3.92-3.58-6.75-2.56-2.83-6.22-2.83-2.57 0-4.06 1.43-1.5 1.43-1.5 3.48 0 2.45 1.4 3.67 1.38 1.24 6.17 3.64l3.82 1.93q2.56 1.29 4.08 2.86 2.84 2.93 2.85 7.12-0.01 3.92-3.05 7.4-3.05 3.47-9.77 3.47-1.54 0-3.12-0.29-1.58-0.29-3.13-0.9l-0.99-0.37q-0.35-0.11-0.67-0.17-0.32-0.06-0.55-0.06-0.79 0-1.09 0.47-0.3 0.46-0.53 1.32h-1.49c0 0 0-12.82 0-12.82z"/>
	<path class="s1" d="m381.76 48.74q5.33 5.18 5.33 13.35 0 8.17-5.33 13.36-5.21 5.06-13.03 5.06-8.29 0-13.53-5.54-4.88-5.21-4.88-12.6 0-8.14 5.11-13.38 5.16-5.31 13.3-5.31 7.84 0 13.03 5.06zm-5.04 23.12q1.17-3.75 1.17-9.77 0-8.27-2.47-12.47-2.47-4.19-6.7-4.19-5.88 0-8.06 7-1.14 3.72-1.14 9.66 0 6.05 1.17 9.77 2.15 6.9 8.03 6.9 5.82 0 8-6.9z"/>
	<path class="s1" d="m389.65 78.15q2.96-0.02 3.84-1.04 0.89-1.03 0.89-3.08v-24.61q0-2.11-1.01-2.77-1.02-0.67-3.6-0.87v-1.31h13.05l10.2 23.97h0.43l10.13-23.97h13.06v1.31q-2.63 0.2-3.59 0.97-0.96 0.77-0.96 3.76v22.92q0 2.85 0.96 3.74 0.96 0.88 3.59 0.98v1.32h-17.2v-1.32q2.3-0.07 3.47-0.77 1.16-0.69 1.16-3.04v-25.32h-0.38l-12.7 30.45h-1.39l-12.82-29.85h-0.23v23.43q0 2.59 0.96 3.78 0.96 1.2 4.25 1.32v1.32h-12.11z"/>
	<path class="s1" d="m438.77 78.15q1.87-0.12 3.01-1.69 0.73-0.99 2.1-4.35l11.51-28.35h1.44l11.55 27.21q1.95 4.58 2.91 5.91 0.96 1.33 2.74 1.27v1.32h-16.77v-1.32q2.52-0.1 3.32-0.43 0.8-0.32 0.8-1.67 0-0.6-0.41-1.84-0.25-0.74-0.68-1.77l-1.32-3.14h-11.63q-1.14 3.09-1.47 4.02-0.68 2-0.68 2.91 0 1.11 1.49 1.62 0.89 0.28 2.66 0.3v1.32h-10.58c0 0 0-1.32 0.01-1.32zm19.44-10.9l-4.98-11.99h-0.44l-4.67 11.99z"/>
</svg>