<svg version="1.2" xmlns="http://www.w3.org/2000/svg" viewBox="0 0 181 60" width="181" height="60">
	<style>
		.s0 { fill: #389cd6 } 
		.s1 { fill: #000000 } 
	</style>
	<g>
		<g id="Layer_1">
			<g>
				<path fill-rule="evenodd" class="s0" d="m28.16 55.79h-28.16v-55.79l28.16 18.29v37.5z"/>
				<path class="s1" d="m60.2 26.37q-2.43-1.22-5.73-1.22h-8.15v4.22h5.2 2.55c1.96 0 3.41 0.46 4.39 1.44q1.46 1.47 1.45 4.32c0 1.91-0.46 3.41-1.45 4.39-0.98 0.98-2.43 1.44-4.39 1.44h-2.55v-14.83l-5.2 2.83v16.16h8.15q3.39 0 5.73-1.22 2.43-1.21 3.64-3.46 1.29-2.25 1.27-5.36 0.02-3.12-1.27-5.37-1.29-2.25-3.7-3.46zm22.32 10.62q-0.01 2.16-0.98 3.28-0.96 1.14-2.78 1.16-1.82-0.02-2.77-1.16c-0.64-0.75-0.99-1.9-0.99-3.28v-11.77h-5.08v11.53q0 4.23 2.25 6.47c1.5 1.5 3.7 2.19 6.59 2.19q4.34 0 6.6-2.25 2.25-2.24 2.25-6.46v-11.54h-5.15v11.77zm-69.91 8.19h5.21v-19.96h-5.21zm28.39 0.17v-0.17h-0.11zm-17.87-20.14v19.97h4.86v-11.43l8.04 11.37h4.79c0 0.06-13.93-19.91-13.93-19.91h-3.82zm13.01 10.62h4.86v-10.67h-4.86zm108.6 1.44c1.51-0.35 2.66-1.04 3.53-2.14 0.81-1.03 1.27-2.3 1.27-3.86 0-1.56-0.63-3.52-1.85-4.56q-1.83-1.56-5.49-1.56h-9.54v19.96h5.14v-11.25l7.12 11.25h5.72l-2.49-4.44-2.54-4.5c-0.69-1.27-1.79 0.41-0.87 1.04zm-0.86-4.04q-0.77 0.52-2.49 0.52h-3.64v-4.67h3.64c1.16 0 1.97 0.17 2.49 0.58 0.52 0.34 0.75 0.98 0.75 1.78q0.01 1.22-0.75 1.73zm10.58 11.95h5.2v-19.96h-5.2zm25.79-8.66c-0.46-0.75-1.16-1.38-2.2-1.96-1.04-0.58-2.48-1.04-4.28-1.44q-1.66-0.35-2.54-0.69-0.88-0.35-1.16-0.7c-0.23-0.23-0.29-0.52-0.29-0.86 0-0.58 0.29-1.1 0.87-1.44 0.58-0.35 1.39-0.58 2.31-0.58q3.04 0.01 5.73 1.84l1.56-3.69q-1.11-0.95-3.18-1.56c-1.33-0.4-2.78-0.63-4.16-0.63-1.39 0-3.07 0.29-4.34 0.87q-1.91 0.85-2.95 2.3-1.04 1.47-1.04 3.29c0 1.21 0.23 1.96 0.63 2.71q0.61 1.13 2.26 1.91c1.04 0.52 2.54 1.04 4.39 1.44 1.51 0.35 2.55 0.63 3.07 0.98 0.52 0.35 0.81 0.75 0.81 1.27q0 0.79-0.87 1.33-0.87 0.44-2.6 0.46c-1.16 0-2.2-0.18-3.3-0.46q-1.65-0.52-3.12-1.39l-1.62 3.69c0.93 0.64 2.08 1.22 3.53 1.62 1.44 0.4 2.95 0.58 4.45 0.58 2.72 0 4.86-0.58 6.36-1.68q2.26-1.66 2.26-4.61c0-1.04-0.23-1.91-0.64-2.66zm-62.74 8.66h5.26v-14.37l-5.26 2.83zm-5.96-15.75h17.29v-4.21h-17.29zm-5.66 5.19c-1.05-0.58-2.49-1.04-4.28-1.44q-1.67-0.35-2.55-0.69-0.88-0.35-1.16-0.7c-0.23-0.23-0.28-0.52-0.28-0.86 0-0.58 0.28-1.1 0.86-1.44 0.58-0.35 1.39-0.58 2.32-0.58q3.03 0.01 5.72 1.84l1.56-3.69q-1.11-0.95-3.18-1.56c-1.33-0.4-2.77-0.63-4.16-0.63-1.39 0-3.07 0.29-4.34 0.87q-1.91 0.85-2.95 2.3-1.04 1.47-1.04 3.29c0 1.21 0.23 1.96 0.64 2.71q0.6 1.13 2.25 1.91c1.04 0.52 2.55 1.04 4.4 1.44 1.5 0.35 2.54 0.63 3.06 0.98 0.52 0.35 0.81 0.75 0.81 1.27q0 0.79-0.87 1.33-0.86 0.44-2.6 0.46-1.73-0.02-3.29-0.46-1.65-0.52-3.13-1.39l-1.62 3.69c0.93 0.64 2.09 1.22 3.53 1.62 1.45 0.4 2.95 0.58 4.45 0.58 2.72 0 4.86-0.58 6.37-1.68q2.25-1.66 2.25-4.61c0-1.96-0.23-1.91-0.64-2.66-0.46-0.75-1.15-1.38-2.19-1.96z"/>
				<g>
					<path class="s1" d="m33.71 55.56c-0.23-0.12-0.46-0.29-0.57-0.46q-0.25-0.35-0.24-0.7h0.7c0 0.23 0.11 0.41 0.29 0.58 0.17 0.17 0.4 0.23 0.75 0.23 0.35 0 0.52-0.06 0.75-0.23 0.17-0.17 0.29-0.35 0.29-0.58 0-0.23 0-0.34-0.17-0.46-0.12-0.11-0.24-0.23-0.41-0.29-0.17-0.05-0.35-0.11-0.63-0.17-0.35-0.06-0.58-0.17-0.76-0.23-0.17-0.06-0.34-0.23-0.52-0.4-0.11-0.18-0.23-0.41-0.23-0.75 0-0.35 0.06-0.52 0.23-0.7 0.12-0.23 0.35-0.34 0.58-0.46q0.35-0.17 0.87-0.17 0.71 0 1.16 0.35 0.43 0.33 0.52 0.92h-0.7q-0.01-0.26-0.29-0.52c-0.17-0.12-0.4-0.23-0.69-0.23-0.29 0-0.46 0.06-0.64 0.23-0.17 0.11-0.23 0.35-0.23 0.58 0 0.23 0 0.34 0.17 0.46q0.18 0.16 0.35 0.23c0.18 0.06 0.35 0.11 0.64 0.17 0.34 0.12 0.58 0.17 0.81 0.29q0.26 0.16 0.52 0.4c0.11 0.18 0.23 0.41 0.23 0.75 0 0.35-0.06 0.47-0.17 0.7q-0.16 0.34-0.58 0.52-0.35 0.17-0.87 0.17-0.52 0-0.87-0.17z"/>
					<path class="s1" d="m39.32 50.77v3.11c0 0.47 0.12 0.75 0.35 0.99q0.35 0.34 0.87 0.34c0.34 0 0.69-0.11 0.86-0.34 0.24-0.24 0.35-0.52 0.35-0.99v-3.11h0.64v3.11q0.01 0.61-0.23 1.04c-0.18 0.29-0.41 0.46-0.7 0.64-0.29 0.11-0.58 0.23-0.92 0.23-0.35 0-0.64-0.06-0.93-0.23-0.29-0.12-0.52-0.35-0.63-0.64q-0.25-0.43-0.24-1.04v-3.11h0.64z"/>
					<path class="s1" d="m47.82 53.25c-0.29 0.29-0.69 0.4-1.27 0.4h-0.92v2.08h-0.64v-4.9h1.62c0.58 0 0.98 0.11 1.27 0.4q0.45 0.43 0.46 1.04 0.02 0.61-0.4 1.04zm-0.52-0.41c0.17-0.17 0.23-0.4 0.23-0.63q0-0.94-1.04-0.92h-0.93v1.78h0.93c0.35 0 0.64-0.05 0.81-0.23z"/>
					<path class="s1" d="m51.18 51.29v1.61h1.79v0.52h-1.79v1.68h2.02v0.52h-2.66v-4.91h2.66v0.52h-2.02z"/>
					<path class="s1" d="m58.23 55.67l-1.15-2.02h-0.76v2.02h-0.63v-4.9h1.62c0.34 0 0.69 0.06 0.92 0.17 0.23 0.12 0.46 0.29 0.58 0.52q0.17 0.33 0.17 0.75c0 0.29-0.11 0.64-0.29 0.92q-0.26 0.35-0.86 0.52l1.21 2.08h-0.75zm-1.97-2.54h0.93c0.35 0 0.64-0.06 0.81-0.23q0.27-0.26 0.29-0.69 0.01-0.43-0.23-0.69c-0.18-0.18-0.47-0.23-0.81-0.23h-0.93v1.84z"/>
					<path class="s1" d="m62.11 55.56c-0.23-0.12-0.47-0.29-0.58-0.46q-0.25-0.35-0.23-0.7h0.69c0 0.23 0.12 0.41 0.29 0.58 0.17 0.17 0.4 0.23 0.75 0.23 0.35 0 0.52-0.06 0.75-0.23 0.18-0.17 0.29-0.35 0.29-0.58 0-0.23 0-0.34-0.17-0.46-0.17-0.11-0.23-0.23-0.41-0.29-0.17-0.05-0.34-0.11-0.63-0.17-0.35-0.06-0.58-0.17-0.75-0.23-0.18-0.06-0.35-0.23-0.52-0.4-0.12-0.18-0.24-0.41-0.24-0.75 0-0.35 0.06-0.52 0.24-0.7 0.11-0.23 0.34-0.34 0.57-0.46q0.35-0.17 0.87-0.17 0.71 0 1.16 0.35 0.43 0.33 0.52 0.92h-0.69q-0.02-0.26-0.29-0.52c-0.18-0.12-0.41-0.23-0.7-0.23-0.29 0-0.46 0.06-0.63 0.23-0.18 0.11-0.24 0.35-0.24 0.58 0 0.23 0 0.34 0.18 0.46q0.17 0.16 0.34 0.23c0.18 0.06 0.35 0.11 0.64 0.17 0.35 0.12 0.58 0.17 0.81 0.29q0.26 0.16 0.52 0.4c0.12 0.18 0.23 0.41 0.23 0.75 0 0.35-0.06 0.47-0.17 0.7q-0.16 0.34-0.58 0.52-0.35 0.17-0.87 0.17-0.52 0-0.86-0.17z"/>
					<path class="s1" d="m70.09 50.77v0.52h-1.33v4.38h-0.64v-4.38h-1.33v-0.52h3.35z"/>
					<path class="s1" d="m74.94 55.67l-1.15-2.02h-0.75v2.02h-0.64v-4.9h1.56c0.35 0 0.7 0.06 0.93 0.17 0.23 0.12 0.46 0.29 0.57 0.52q0.18 0.33 0.18 0.75c0 0.29-0.12 0.64-0.29 0.92q-0.26 0.35-0.87 0.52l1.22 2.08h-0.76zm-1.96-2.54h0.92c0.35 0 0.64-0.06 0.81-0.23q0.28-0.26 0.29-0.69 0.02-0.43-0.23-0.69c-0.17-0.18-0.46-0.23-0.81-0.23h-0.92v1.84z"/>
					<path class="s1" d="m78.76 50.77v3.11c0 0.47 0.12 0.75 0.35 0.99q0.34 0.34 0.87 0.34c0.34 0 0.69-0.11 0.86-0.34 0.23-0.24 0.35-0.52 0.35-0.99v-3.11h0.64v3.11q0.01 0.61-0.24 1.04c-0.17 0.29-0.4 0.46-0.69 0.64-0.29 0.11-0.58 0.23-0.92 0.23-0.35 0-0.64-0.06-0.93-0.23-0.29-0.12-0.52-0.35-0.64-0.64-0.11-0.29-0.23-0.63-0.23-1.04v-3.11h0.64z"/>
					<path class="s1" d="m84.43 51.92q0.35-0.59 0.87-0.92c0.34-0.23 0.81-0.35 1.27-0.35 0.46 0 0.98 0.12 1.39 0.41 0.4 0.23 0.69 0.63 0.86 1.09h-0.75c-0.11-0.28-0.35-0.52-0.58-0.69-0.23-0.17-0.58-0.23-0.92-0.23-0.35 0-0.64 0.06-0.93 0.23-0.29 0.17-0.46 0.41-0.63 0.69q-0.25 0.44-0.23 1.04-0.02 0.61 0.23 1.04c0.17 0.29 0.34 0.52 0.63 0.69 0.29 0.18 0.58 0.23 0.93 0.23 0.34 0 0.63-0.05 0.92-0.23q0.42-0.26 0.58-0.69h0.75q-0.26 0.68-0.86 1.1-0.61 0.42-1.39 0.4c-0.52 0-0.87-0.11-1.27-0.35-0.35-0.23-0.7-0.51-0.87-0.86q-0.35-0.59-0.35-1.27c0-0.46 0.12-0.92 0.35-1.27z"/>
					<path class="s1" d="m94.32 50.77v0.52h-1.33v4.38h-0.64v-4.38h-1.33v-0.52h3.35z"/>
					<path class="s1" d="m97.27 50.77v3.11c0 0.47 0.11 0.75 0.34 0.99q0.35 0.34 0.87 0.34c0.35 0 0.69-0.11 0.87-0.34 0.23-0.24 0.34-0.52 0.34-0.99v-3.11h0.64v3.11q0.02 0.61-0.23 1.04c-0.17 0.29-0.41 0.46-0.69 0.64-0.29 0.11-0.58 0.23-0.93 0.23-0.35 0-0.64-0.06-0.93-0.23-0.28-0.12-0.52-0.35-0.63-0.64-0.12-0.29-0.23-0.63-0.23-1.04v-3.11h0.63z"/>
					<path class="s1" d="m105.48 55.67l-1.16-2.02h-0.75v2.02h-0.64v-4.9h1.62c0.35 0 0.7 0.06 0.93 0.17 0.23 0.12 0.46 0.29 0.58 0.52q0.17 0.33 0.17 0.75c0 0.29-0.12 0.64-0.29 0.92q-0.26 0.35-0.87 0.52l1.22 2.08h-0.75zm-1.97-2.54h0.92c0.35 0 0.64-0.06 0.81-0.23q0.28-0.26 0.29-0.69 0.02-0.43-0.23-0.69c-0.17-0.18-0.46-0.23-0.81-0.23h-0.92v1.84z"/>
					<path class="s1" d="m109.29 51.29v1.61h1.8v0.52h-1.8v1.68h2.03v0.52h-2.66v-4.91h2.66v0.52h-2.03z"/>
					<path class="s1" d="m120.57 51.92q0.35-0.59 0.87-0.92c0.34-0.23 0.81-0.35 1.27-0.35 0.46 0 0.98 0.12 1.39 0.41 0.4 0.23 0.69 0.63 0.87 1.09h-0.76c-0.11-0.28-0.34-0.52-0.57-0.69-0.24-0.17-0.58-0.23-0.93-0.23-0.35 0-0.64 0.06-0.93 0.23-0.28 0.17-0.46 0.41-0.63 0.69q-0.25 0.44-0.23 1.04-0.02 0.61 0.23 1.04c0.17 0.29 0.35 0.52 0.63 0.69 0.29 0.18 0.58 0.23 0.93 0.23 0.35 0 0.64-0.05 0.93-0.23 0.23-0.17 0.46-0.4 0.57-0.69h0.76q-0.27 0.68-0.87 1.1c-0.41 0.23-0.87 0.4-1.39 0.4-0.52 0-0.87-0.11-1.27-0.35-0.35-0.23-0.7-0.51-0.87-0.86q-0.35-0.59-0.35-1.27c0-0.46 0.12-0.92 0.35-1.27z"/>
					<path class="s1" d="m128.43 55.38q-0.6-0.33-0.86-0.92-0.35-0.59-0.35-1.27c0-0.46 0.12-0.92 0.35-1.27q0.34-0.59 0.86-0.92c0.35-0.23 0.81-0.35 1.28-0.35q0.68 0 1.27 0.35 0.61 0.35 0.87 0.87 0.34 0.59 0.34 1.26c0 0.47-0.11 0.93-0.34 1.27q-0.35 0.61-0.87 0.87-0.59 0.35-1.27 0.35-0.68 0-1.28-0.35zm2.14-0.46q0.45-0.26 0.64-0.69 0.25-0.44 0.23-1.04 0.02-0.61-0.23-1.04c-0.17-0.29-0.35-0.52-0.64-0.69-0.28-0.18-0.57-0.23-0.92-0.23-0.35 0-0.64 0.05-0.93 0.23-0.29 0.17-0.46 0.4-0.63 0.69q-0.25 0.43-0.23 1.04-0.02 0.6 0.23 1.04c0.17 0.28 0.34 0.51 0.63 0.69 0.29 0.17 0.58 0.23 0.93 0.23 0.35 0 0.64-0.06 0.92-0.23z"/>
					<path class="s1" d="m138.32 55.67h-0.63l-2.61-3.92v3.92h-0.63v-4.9h0.63l2.61 3.92v-3.92h0.63z"/>
					<path class="s1" d="m143.93 50.77v0.52h-1.33v4.38h-0.63v-4.38h-1.33v-0.52h3.35z"/>
					<path class="s1" d="m148.79 55.67l-1.16-2.02h-0.75v2.02h-0.63v-4.9h1.61c0.35 0 0.7 0.06 0.93 0.17 0.23 0.12 0.46 0.29 0.58 0.52q0.17 0.33 0.17 0.75c0 0.29-0.11 0.64-0.29 0.92q-0.26 0.35-0.86 0.52l1.21 2.08h-0.75zm-1.91-2.54h0.92c0.35 0 0.64-0.06 0.81-0.23q0.28-0.26 0.29-0.69 0.02-0.43-0.23-0.69c-0.17-0.18-0.46-0.23-0.81-0.23h-0.92v1.84z"/>
					<path class="s1" d="m154.92 54.58h-2.14l-0.4 1.09h-0.7l1.79-4.9h0.76l1.79 4.9h-0.7zm-0.17-0.52l-0.87-2.48-0.86 2.48h1.79z"/>
					<path class="s1" d="m158.33 51.92q0.35-0.59 0.87-0.92c0.35-0.23 0.81-0.35 1.27-0.35 0.46 0 0.98 0.12 1.39 0.41 0.4 0.23 0.69 0.63 0.87 1.09h-0.76c-0.11-0.28-0.34-0.52-0.57-0.69-0.23-0.17-0.58-0.23-0.93-0.23-0.35 0-0.63 0.06-0.92 0.23-0.29 0.17-0.47 0.41-0.64 0.69q-0.25 0.44-0.23 1.04-0.02 0.61 0.23 1.04c0.17 0.29 0.35 0.52 0.64 0.69 0.29 0.18 0.57 0.23 0.92 0.23 0.35 0 0.7-0.05 0.93-0.23 0.23-0.17 0.46-0.4 0.57-0.69h0.76q-0.26 0.68-0.87 1.1c-0.41 0.23-0.87 0.4-1.39 0.4-0.52 0-0.87-0.11-1.27-0.35-0.35-0.23-0.69-0.51-0.87-0.86q-0.35-0.59-0.35-1.27c0-0.46 0.12-0.92 0.35-1.27z"/>
					<path class="s1" d="m168.22 50.77v0.52h-1.33v4.38h-0.64v-4.38h-1.33v-0.52h3.36z"/>
					<path class="s1" d="m171.46 55.38q-0.61-0.33-0.87-0.92-0.35-0.59-0.35-1.27c0-0.46 0.12-0.92 0.35-1.27q0.35-0.59 0.87-0.92c0.35-0.23 0.81-0.35 1.27-0.35q0.68 0 1.27 0.35 0.61 0.35 0.87 0.87 0.35 0.59 0.35 1.26c0 0.47-0.12 0.93-0.35 1.27q-0.35 0.61-0.87 0.87c-0.34 0.23-0.81 0.35-1.27 0.35q-0.68 0-1.27-0.35zm2.2-0.46q0.44-0.26 0.63-0.69 0.25-0.44 0.23-1.04 0.02-0.61-0.23-1.04c-0.17-0.29-0.34-0.52-0.63-0.69-0.29-0.18-0.58-0.23-0.93-0.23-0.35 0-0.64 0.05-0.92 0.23-0.29 0.17-0.47 0.4-0.64 0.69q-0.25 0.43-0.23 1.04-0.02 0.6 0.23 1.04c0.17 0.28 0.35 0.51 0.64 0.69 0.28 0.17 0.57 0.23 0.92 0.23 0.35 0 0.64-0.06 0.93-0.23z"/>
					<path class="s1" d="m180.13 55.67l-1.15-2.02h-0.76v2.02h-0.63v-4.9h1.62c0.34 0 0.69 0.06 0.92 0.17 0.23 0.12 0.47 0.29 0.58 0.52q0.17 0.33 0.17 0.75c0 0.29-0.11 0.64-0.28 0.92q-0.27 0.35-0.87 0.52l1.21 2.08h-0.75zm-1.97-2.54h0.93c0.35 0 0.64-0.06 0.81-0.23q0.27-0.26 0.29-0.69 0.01-0.43-0.23-0.69c-0.18-0.18-0.47-0.23-0.81-0.23h-0.93v1.84z"/>
				</g>
			</g>
		</g>
	</g>
</svg>